<?xml version="1.0" encoding="UTF-8" standalone="no"?><!DOCTYPE svg PUBLIC "-//W3C//DTD SVG 1.1//EN" "http://www.w3.org/Graphics/SVG/1.1/DTD/svg11.dtd"><svg width="100%" height="100%" viewBox="0 0 2215 2458" version="1.1" xmlns="http://www.w3.org/2000/svg" xmlns:xlink="http://www.w3.org/1999/xlink" xml:space="preserve" xmlns:serif="http://www.serif.com/" style="fill-rule:evenodd;clip-rule:evenodd;stroke-miterlimit:10;"><g><clipPath id="_clip1"><rect x="0" y="130.898" width="2214.11" height="2326.71" clip-rule="nonzero"/></clipPath><g clip-path="url(#_clip1)"><path d="M1345.59,568.218c-101.554,0 -193.329,33.946 -259.113,88.609c-65.783,-54.663 -157.558,-88.609 -259.112,-88.609c-200.088,0 -362.292,131.717 -362.292,294.192c0,162.479 162.204,294.196 362.292,294.196c101.554,-0 193.329,-33.946 259.112,-88.609c65.784,54.663 157.559,88.609 259.113,88.609c200.087,-0 362.291,-131.717 362.291,-294.196c0,-162.475 -162.204,-294.192 -362.291,-294.192" style="fill:#fff;fill-rule:nonzero;"/><path d="M1345.59,568.218c-101.554,0 -193.329,33.946 -259.113,88.609c-65.783,-54.663 -157.558,-88.609 -259.112,-88.609c-200.088,0 -362.292,131.717 -362.292,294.192c0,162.479 162.204,294.196 362.292,294.196c101.554,-0 193.329,-33.946 259.112,-88.609c65.784,54.663 157.559,88.609 259.113,88.609c200.087,-0 362.291,-131.717 362.291,-294.196c0,-162.475 -162.204,-294.192 -362.291,-294.192Z" style="fill:none;fill-rule:nonzero;stroke:#231f20;stroke-width:6.25px;"/><path d="M817.334,795.153c-0,0 211.216,-87.471 217.991,-219.566c6.775,-132.096 -75.733,-220.755 -123.154,-230.917l114.296,-147.033c0,-0 166.833,75.904 187.154,296.066c20.325,220.159 40.646,294.675 172.742,328.546c132.1,33.871 -203.225,125.325 -203.225,125.325l-365.804,-152.421Z" style="fill:#fff;fill-rule:nonzero;stroke:#231f20;stroke-width:6.25px;"/><path d="M1730.75,659.369c-201.25,-6.492 -259.583,120.129 -259.583,120.129c0,0 -58.333,12.984 -183.75,9.738c-125.417,-3.246 -193.421,73.046 -193.421,73.046c0,-0 -60.329,-76.292 -185.746,-73.046c-125.416,3.246 -183.75,-9.738 -183.75,-9.738c0,0 -58.333,-126.621 -259.583,-120.129c-201.25,6.492 -472.5,188.308 -414.167,646.092c58.334,457.779 177.917,561.675 265.417,662.321c62.954,72.412 183.279,146.504 304.488,195.675c125.229,114.958 292.891,185.279 477.179,185.279c184.287,-0 351.95,-70.321 477.179,-185.279c121.208,-49.171 241.533,-123.263 304.487,-195.675c87.5,-100.646 207.084,-204.542 265.417,-662.321c58.333,-457.784 -212.917,-639.6 -414.167,-646.092" style="fill:#fff;fill-rule:nonzero;"/><path d="M1730.75,659.369c-201.25,-6.492 -259.583,120.129 -259.583,120.129c0,0 -58.333,12.984 -183.75,9.738c-125.417,-3.246 -193.421,73.046 -193.421,73.046c0,-0 -60.329,-76.292 -185.746,-73.046c-125.416,3.246 -183.75,-9.738 -183.75,-9.738c0,0 -58.333,-126.621 -259.583,-120.129c-201.25,6.492 -472.5,188.308 -414.167,646.092c58.334,457.779 177.917,561.675 265.417,662.321c62.954,72.412 183.279,146.504 304.488,195.675c125.229,114.958 292.891,185.279 477.179,185.279c184.287,-0 351.95,-70.321 477.179,-185.279c121.208,-49.171 241.533,-123.263 304.487,-195.675c87.5,-100.646 207.084,-204.542 265.417,-662.321c58.333,-457.784 -212.917,-639.6 -414.167,-646.092Z" style="fill:none;fill-rule:nonzero;stroke:#231f20;stroke-width:6.25px;"/><path d="M1772.05,1915.78c-84.687,289.504 -354.483,432.954 -674.216,432.954c-319.854,-0 -589.734,-143.613 -674.313,-433.283" style="fill:#fff;fill-rule:nonzero;stroke:#231f20;stroke-width:6.25px;"/><path d="M485.428,922.862c-0,-0 67.733,-139.738 294.642,-158.621c226.904,-18.884 313.875,98.191 313.875,98.191" style="fill:#fff;fill-rule:nonzero;stroke:#231f20;stroke-width:6.25px;"/><path d="M1702.56,922.862c-0,-0 -67.733,-139.738 -294.642,-158.621c-226.904,-18.884 -313.875,98.191 -313.875,98.191" style="fill:#fff;fill-rule:nonzero;stroke:#231f20;stroke-width:6.25px;"/><path d="M171.277,-24.561c7.717,-1.225 17.067,-3.475 26.88,-3.475c9.816,0 19.087,2.746 26.804,3.971c13.966,2.221 20.425,6.883 20.425,11.337c-0,4.455 -6.234,10.53 -20.2,12.746c-7.721,1.229 -17.213,2.513 -27.029,2.513c-9.813,-0 -19.096,-2.613 -26.813,-3.838c-13.967,-2.221 -24.387,-6.966 -24.387,-11.421c-0,-4.454 10.354,-9.612 24.32,-11.833m51.971,9.671c-0.304,-2.121 -3.183,-4.133 -7.641,-5.517c-4.421,-1.408 -10.405,-2.179 -16.38,-2.175c-5.975,-0.004 -11.958,0.771 -16.379,2.175c-4.454,1.388 -7.329,3.396 -7.629,5.517c-0.154,1.058 0.296,2.142 1.392,3.158c1.108,1.013 2.804,1.967 5.037,2.767c2.242,0.792 4.95,1.45 7.971,1.896c3.013,0.441 6.317,0.666 9.608,0.671c3.292,-0.005 6.596,-0.23 9.613,-0.671c3.021,-0.442 5.729,-1.1 7.971,-1.896c2.241,-0.796 3.933,-1.75 5.046,-2.767c1.1,-1.016 1.545,-2.096 1.391,-3.158m-72.3,2.917c0.742,0.795 1.609,1.45 2.509,2.037c1.812,1.163 3.766,2.058 5.754,2.842c3.991,1.546 8.146,2.621 12.337,3.433c4.179,0.708 8.279,1.7 12.471,2.529c4.179,0.825 8.433,1.492 12.758,1.654c8.588,0.23 17.163,-0.395 25.559,-1.887c4.216,-0.692 8.529,-1.783 12.421,-3.8c1.941,-1.004 3.791,-2.25 5.333,-3.842c0.762,-0.804 1.437,-1.7 1.937,-2.691c0.505,-0.984 0.813,-2.1 0.717,-3.2l-0.258,-0c-0.242,2.079 -1.638,3.758 -3.2,5.02c-1.579,1.296 -3.413,2.263 -5.304,3.055c-1.905,0.775 -3.88,1.387 -5.896,1.837c-2.021,0.475 -4.042,0.792 -6.15,1.054l-6.271,0.838c-2.088,0.279 -4.179,0.546 -6.271,0.758c-4.175,0.475 -8.392,0.775 -12.571,0.779c-4.162,-0.029 -8.341,-0.55 -12.504,-1.241c-4.158,-0.684 -8.337,-1.563 -12.55,-2.142c-4.162,-0.633 -8.3,-1.525 -12.287,-2.888c-1.988,-0.687 -3.942,-1.491 -5.75,-2.55c-0.9,-0.533 -1.763,-1.133 -2.5,-1.866c-0.721,-0.725 -1.35,-1.625 -1.375,-2.659l-0.259,0.009c-0.016,1.129 0.629,2.137 1.35,2.921" style="fill:#bfc1c3;fill-rule:nonzero;"/><g transform="matrix(1,0,0,0.909091,0,-63.6367)"><text x="252.845px" y="113.797px" style="font-family:'ArialNarrow-Bold', 'Arial', sans-serif;font-weight:700;font-stretch:condensed;font-size:96.25px;fill:#231f20;">What would you paint on a pumpkin?</text></g><path d="M-125.107,-700.003l-118.108,0m2669.29,0l118.108,0m-2669.29,3507.88l-118.108,0m2669.29,0l118.108,0m-2633.85,-3543.31l0,-118.108m0,3696.85l0,118.108m2480.31,-3696.85l-0,-118.108m-0,3696.85l-0,118.108" style="fill:none;fill-rule:nonzero;stroke:#fff;stroke-width:5.9px;"/><path d="M-89.674,-735.436l-118.109,0m2598.43,0l118.109,0m-2598.43,3578.74l-118.109,-0m2598.43,-0l118.109,-0m-2633.86,-3543.31l0,-118.108m0,3625.98l0,118.109m2551.18,-3625.98l-0,-118.108m-0,3625.98l-0,118.109" style="fill:none;fill-rule:nonzero;stroke:#fff;stroke-width:5.9px;"/><clipPath id="_clip2"><rect x="-243.215" y="-853.546" width="2787.4" height="3814.96" clip-rule="nonzero"/></clipPath><g clip-path="url(#_clip2)"><path d="M-125.107,-700.003l-118.108,0m2669.29,0l118.108,0m-2669.29,3507.88l-118.108,0m2669.29,0l118.108,0m-2633.85,-3543.31l0,-118.108m0,3696.85l0,118.108m2480.31,-3696.85l-0,-118.108m-0,3696.85l-0,118.108" style="fill:none;fill-rule:nonzero;stroke:#000;stroke-width:1.18px;"/></g><path d="M-89.674,-735.436l-118.109,0m2598.43,0l118.109,0m-2598.43,3578.74l-118.109,-0m2598.43,-0l118.109,-0m-2633.86,-3543.31l0,-118.108m0,3625.98l0,118.109m2551.18,-3625.98l-0,-118.108m-0,3625.98l-0,118.109" style="fill:none;fill-rule:nonzero;stroke:#000;stroke-width:1.18px;"/></g></g><rect x="0" y="0" width="2214.11" height="2457.61" style="fill:none;"/></svg>